# xmcd
#
# Track frame offsets:
#   150
#   14056
#   30928
#   51577
#   65669
#   80313
#   94319
#   107458
#   124339
#   139018
#   154703
#   169031
#   181074
#   195881
#   215546
#   230708
#   246740
#   264478
#   282943
#
# Disc length: 3976 seconds
#
# Revision: 0
# Processed by: cddbd v1.5.1PL0 Copyright (c) Steve Scherf et al.
# Submitted via: Media_Universe 3.0
#
DISCID=100f8613
DTITLE=Reba McEntire - Swet Sixteen/It's Your Call
DYEAR=1900
DGENRE=Country
TTITLE0=Cathy's Clown
TTITLE1=Til Love Comes Again
TTITLE2=It Always Rains On Saturday
TTITLE3=Am I The Only One Who Cares
TTITLE4=Somebody Up There Likes Me
TTITLE5=You Must Really Love Me
TTITLE6=Say The Word
TTITLE7=Little Girl
TTITLE8=Walk On
TTITLE9=A New Love
TTITLE10=Its Your Call
TTITLE11=Straight From You
TTITLE12=Take It Back
TTITLE13=Babys Gone Blues
TTITLE14=The Heart Wont Lie
TTITLE15=One Last Good Hand
TTITLE16=He Wants To Get Married
TTITLE17=For Herself
TTITLE18=Will He Ever Go Away
EXTD=
EXTT0=
EXTT1=
EXTT2=
EXTT3=
EXTT4=
EXTT5=
EXTT6=
EXTT7=
EXTT8=
EXTT9=
EXTT10=
EXTT11=
EXTT12=
EXTT13=
EXTT14=
EXTT15=
EXTT16=
EXTT17=
EXTT18=
PLAYORDER=
